/* XPM */
static char *ldt____copie[] = {
/* columns rows colors chars-per-pixel */
"48 48 117 2",
"   c #160008",
".  c #1C000A",
"X  c #24030C",
"o  c #29050E",
"O  c #27080C",
"+  c #2B090E",
"@  c #2D0710",
"#  c #2E0910",
"$  c #350B12",
"%  c #3B0C14",
"&  c #361611",
"*  c #3C1913",
"=  c #40000F",
"-  c #450110",
";  c #490311",
":  c #420E17",
">  c #4F0914",
",  c #450F18",
"<  c #510715",
"1  c #550916",
"2  c #580917",
"3  c #570918",
"4  c #5D0B1A",
"5  c #411D13",
"6  c #471019",
"7  c #4B111A",
"8  c #551015",
"9  c #5A1417",
"0  c #54141D",
"q  c #58141F",
"w  c #5F1918",
"e  c #640E1E",
"r  c #641E1A",
"t  c #5F371C",
"y  c #66211B",
"u  c #6A241C",
"i  c #712B1E",
"p  c #61381C",
"a  c #6A3E1E",
"s  c #5D1621",
"d  c #680F20",
"f  c #611722",
"g  c #6B1122",
"h  c #661924",
"j  c #6B1A26",
"k  c #6F1C28",
"l  c #731425",
"z  c #771628",
"x  c #7A1729",
"c  c #731C29",
"v  c #7D1C2C",
"b  c #764721",
"n  c #774A21",
"m  c #841B2E",
"M  c #861C30",
"N  c #8B1E32",
"B  c #83212F",
"V  c #862130",
"C  c #8C2332",
"Z  c #932335",
"A  c #982737",
"S  c #972438",
"D  c #9B263B",
"F  c #9D2839",
"G  c #A0273D",
"H  c #A3293D",
"J  c #AB2C3E",
"K  c #824B25",
"L  c #924B27",
"P  c #964F29",
"I  c #895726",
"U  c #9A532A",
"Y  c #A35B2C",
"T  c #AA612E",
"R  c #A56E2D",
"E  c #C57B36",
"W  c #C87F36",
"Q  c #A62B41",
"!  c #AB2E44",
"~  c #B42E41",
"^  c #AF3046",
"/  c #B13047",
"(  c #B43249",
")  c #BB364D",
"_  c #BE384F",
"`  c #BF3850",
"'  c #C43B53",
"]  c #C93E57",
"[  c #CB3F59",
"{  c #CD405A",
"}  c #D2445D",
"|  c #D64661",
" . c #D84762",
".. c #DC4A65",
"X. c #DF4C68",
"o. c #E14E6A",
"O. c #E5516D",
"+. c #E95471",
"@. c #ED5875",
"#. c #CF8537",
"$. c #C68834",
"%. c #CB8B36",
"&. c #CE8538",
"*. c #D48A3A",
"=. c #D98F3C",
"-. c #D29037",
";. c #DA903E",
":. c #DD993A",
">. c #E0963D",
",. c #E59C3D",
"<. c #E89D3E",
"1. c #EBA33F",
"2. c #F6AB40",
"3. c #FAAF40",
"4. c #FDB241",
"5. c #FFB943",
"6. c None",
/* pixels */
"6.6.6.6.6.6.6.6.6.6.6.6.6.6.6.6.6.6.6.6.6.6.6.6.6.6.6.6.6.6.6.6.6.6.6.6.6.6.6.6.6.6.6.6.6.6.6.6.",
"6.6.6.6.6.6.6.6.6.6.6.6.6.6.6.6.; ; ; ; ; ; ; ; ; ; ; - - 6.6.6.6.6.6.6.6.6.6.6.6.6.6.6.6.6.6.6.",
"6.6.6.6.6.6.6.6.6.6.6.6.6.; ; ; ; ; ; ; ; ; ; ; = - ; 1 u i i w 6.6.6.6.6.6.6.6.6.6.6.6.6.6.6.6.",
"6.6.6.6.6.6.6.6.6.6.6.; ; ; ; ; ; ; ; ; ; ; - - r P &.2.2.2.2.2.<.;.6.6.6.6.6.6.6.6.6.6.6.6.6.6.",
"6.6.6.6.6.6.6.6.6.6.; ; ; ; ; ; ; ; ; ; ; = 8 T 1.5.4.4.4.4.4.4.4.4.4.6.6.6.6.6.6.6.6.6.6.6.6.6.",
"6.6.6.6.6.6.6.6.; ; ; ; ; ; ; ; ; ; ; ; = y =.5.4.3.3.3.3.3.3.3.3.3.3.3.6.6.6.6.6.6.6.6.6.6.6.6.",
"6.6.6.6.6.6.6.; ; ; ; ; ; ; ; ; ; ; ; = r >.5.4.3.3.3.3.3.3.3.3.3.3.3.3.3.6.6.6.6.6.6.6.6.6.6.6.",
"6.6.6.6.6.6.; ; ; ; ; ; ; ; ; ; ; ; - 8 *.5.4.4.4.4.4.4.3.3.3.3.3.3.3.3.3.6.6.6.6.6.6.6.6.6.6.6.",
"6.6.6.6.6.> > > > > > ; ; ; ; ; ; ; - Y 5.1.-.$.$.:.2.3.4.4.4.3.3.3.3.3.3.6.6.6.6.6.6.6.6.6.6.6.",
"6.6.6.6.3 3 3 3 3 1 1 1 < < < > > ; 1 K t + + O O O & p R :.4.4.3.3.3.3.3.6.6.6.6.6.6.6.6.6.6.6.",
"6.6.6.6.4 4 4 4 4 4 4 4 4 2 3 3 1 6.6.X o + + + + + O X   & n -.4.4.3.3.6.6.6.6.6.6.6.6.6.6.6.6.",
"6.6.6.e e e e e e e e e e e 4 4 6.6.# $ $ $ % % $ $ $ $ # X 6.6.6.6.6.6.6.6.3.3.3.3.6.6.6.6.6.6.",
"6.6.g g g g g g g g g g d e 6.6.6.6.% % % : : : : % % % $ 6.6.6.6.6.6.6.6.3.3.3.3.3.3.6.6.6.6.6.",
"6.6.l l l l l l l l l l g 6.6.6.6.6., , 6 7 7 7 7 6 , : 6.6.6.6.6.6.6.6.6.3.3.3.3.3.3.4.6.6.6.6.",
"6.6.z z z z z x z z z z z 6.6.6.6.6.7 0 0 0 0 0 0 0 7 7 6.6.6.6.6.6.6.6.6.4.3.3.3.3.3.4.=.6.6.6.",
"6.x x x v v v v v v v x 6.6.6.6.6.6.0 s s s s s s s q 0 6.6.6.6.6.6.6.6.6.2.4.3.3.3.3.4.<.6.6.6.",
"6.m m m m m m m m m m m 6.6.6.6.6.6.s f h h h h h h f s 6.6.6.6.6.6.6.6.6.%.5.3.3.3.3.4.2.w 6.6.",
"6.M M N N N N N N N N 6.6.6.6.6.6.6.h j k c c c c j j h f 6.6.6.6.6.6.6.6.I 5.4.3.3.3.4.2.i 6.6.",
"N N C C Z Z Z Z Z Z Z 6.6.6.6.6.6.6.6.c c v v v v c c j h 6.6.6.6.6.6.6.X * :.4.3.3.3.4.2.i 6.6.",
"Z Z Z S S S S S S S 6.6.6.6.6.6.6.6.6.v B B V V B B v c k h f 6.6.6.6.$ # . R 4.4.3.3.4.2.y - 6.",
"S S D D D D D D D D 6.6.6.6.6.6.6.6.6.B C C C C C V B v c k h s 0 7 , % $ X a 3.4.3.3.4.2.1 ; 6.",
"D D D G G H H H H H 6.6.6.6.6.6.6.6.6.6.Z Z A A A Z C B v c j f q 0 6 % $ o 5 2.4.3.3.4.#.; ; 6.",
"G H Q Q Q Q Q Q Q Q 6.6.6.6.6.6.6.6.6.6.A F H G F A Z V B v k h s 0 7 : % + + 1.4.3.3.5.L - ; 6.",
"Q Q ! ! ! ! ! ! ! ! 6.6.6.6.6.6.6.6.6.6.6.H J J H F S C V v c j s 0 7 : % # + %.4.3.4.1.w = ; 6.",
"! ! ! ^ / / / / / / 6.6.6.6.6.6.6.6.6.6.6.6.~ ~ J H A C V v c j f q 7 , % # + %.4.4.5.U - ; ; 6.",
"^ / ( ( ( ( ( ( ( ( 6.6.6.6.6.6.6.6.6.6.6.6.6.~ J H A Z V v c j f q 7 , % # + ,.4.5.W 1 - ; ; 6.",
"( ( ) ) ) ) ) ) ) ) ) 6.6.6.6.6.6.6.6.6.6.6.6.6.J H A C B v c j s 0 7 : % @ * 3.5.>.w = ; ; ; 6.",
") ) ) _ ` ` ` ' ` ` _ 6.6.6.6.6.6.6.6.6.6.6.6.6.6.F Z C B v c h s 0 7 : % o b 5.E 9 = ; ; ; ; 6.",
"_ _ ' ' ' ' ' ' ' ' ' 6.6.6.6.6.6.6.6.6.6.6.6.6.6.6.6.V v c j h s 0 7 : $ X K U ; - ; ; ; ; ; 6.",
"6.' ' ' ] ] ] ] ] ] ' ' 6.6.6.6.6.6.6.6.6.6.6.6.6.6.6.6.6.6.j f q 0 6 % $ 6.> = - ; ; ; ; ; ; 6.",
"6.' ] ] [ [ { { { [ [ ] 6.6.6.6.6.6.6.6.6.6.6.6.6.6.6.6.6.6.6.6.6.6.6.6.6.6.; ; ; ; ; ; ; ; ; 6.",
"6.] { { } } } } } } { { { 6.6.6.6.6.6.6.6.6.6.6.6.6.6.6.6.6.6.6.6.6.6.6.6.1 > ; ; ; ; ; ; ; ; 6.",
"6.6.} } } } } } } } } } { { 6.6.6.6.6.6.6.6.6.6.6.6.6.6.6.6.6.6.6.6.6.6.4 2 < ; ; ; ; ; ; ; 6.6.",
"6.6.} } | |  . . .| | } } { { 6.6.6.6.6.6.6.6.6.6.6.6.6.6.6.6.6.6.6.6.e 4 2 < ; ; ; ; ; ; ; 6.6.",
"6.6.6. ............. .| | } { { 6.6.6.6.6.6.6.6.6.6.6.6.6.6.6.6.6.6.g g e 4 < ; ; ; ; ; ; ; 6.6.",
"6.6.6.....X.X.X.X.X..... .| } } [ ] 6.6.6.6.6.6.6.6.6.6.6.6.6.6.6.z l g e 4 1 > ; ; ; ; ; 6.6.6.",
"6.6.6.6.X.o.o.o.o.o.X..... .} } { ] ' 6.6.6.6.6.6.6.6.6.6.6.6.m v z l g e 4 1 > ; ; ; ; ; 6.6.6.",
"6.6.6.6.6.O.O.O.O.O.o.X.....| } } [ ] ' ` ) 6.6.6.6.6.6.S Z N m v x l g e 4 2 > ; ; ; ; 6.6.6.6.",
"6.6.6.6.6.O.O.+.O.O.O.o.X... .} } { ] ' ' ) ( / ! Q H D S Z N m m x l g e 4 3 < ; ; ; 6.6.6.6.6.",
"6.6.6.6.6.6.+.+.+.O.O.o.X... .} } { ] ' ' ) ) ( ! ! H D S Z N m m x l g e 4 2 < ; ; ; 6.6.6.6.6.",
"6.6.6.6.6.6.6.@.+.+.O.o.X... .| } { ] ' ' ) ) ( ! ! H D S Z N m m x l g e 4 2 < ; ; 6.6.6.6.6.6.",
"6.6.6.6.6.6.6.6.+.+.O.o.X... .} } { ] ' ' ) ) ( ! ! H D S Z N m m x l g e 4 2 < ; 6.6.6.6.6.6.6.",
"6.6.6.6.6.6.6.6.6.O.O.o.X... .} } { ] ' ' ) ) ( ! ! H D S Z N m m x l g e 4 2 < 6.6.6.6.6.6.6.6.",
"6.6.6.6.6.6.6.6.6.6.6.o.X...| } } { ] ' ' ) ( / ! Q H D S Z N m m x l g e 4 3 6.6.6.6.6.6.6.6.6.",
"6.6.6.6.6.6.6.6.6.6.6.6... .| } { [ ] ' _ ) ( / ! Q H D S Z N m v z l g e 6.6.6.6.6.6.6.6.6.6.6.",
"6.6.6.6.6.6.6.6.6.6.6.6.6.6.} } { ] ' ' _ ) ( ^ ! Q G D S Z N m v z l g 6.6.6.6.6.6.6.6.6.6.6.6.",
"6.6.6.6.6.6.6.6.6.6.6.6.6.6.6.6.[ ] ' ' ) ) / ! ! H D D Z N N m x 6.6.6.6.6.6.6.6.6.6.6.6.6.6.6.",
"6.6.6.6.6.6.6.6.6.6.6.6.6.6.6.6.6.6.6._ ) ( / ! Q H D S Z N 6.6.6.6.6.6.6.6.6.6.6.6.6.6.6.6.6.6."
};
